<?xml version="1.0" encoding="UTF-8" standalone="no"?>
<!DOCTYPE svg PUBLIC "-//W3C//DTD SVG 1.1//EN" "http://www.w3.org/Graphics/SVG/1.1/DTD/svg11.dtd">
<svg width="100%" height="100%" viewBox="0 0 100 100" version="1.1" xmlns="http://www.w3.org/2000/svg" xmlns:xlink="http://www.w3.org/1999/xlink" xml:space="preserve" xmlns:serif="http://www.serif.com/" style="fill-rule:evenodd;clip-rule:evenodd;stroke-linejoin:round;stroke-miterlimit:2;">
    <g id="Artboard1" transform="matrix(0.195312,0,0,0.2,0,0)">
        <rect x="0" y="0" width="512" height="500" style="fill:none;"/>
        <g transform="matrix(5.12,0,0,5,-1484.8,-500)">
            <path d="M320,103C320,101.344 321.344,100 323,100L377,100C378.656,100 380,101.344 380,103L380,117C380,118.656 378.656,120 377,120L322,120C320.896,120 320,120.896 320,122L320,138C320,139.104 320.896,140 322,140L357,140C358.656,140 360,141.344 360,143L360,158C360,159.104 360.896,160 362,160L377,160C378.656,160 380,161.344 380,163L380,177C380,178.656 378.656,180 377,180L362,180C360.896,180 360,180.896 360,182L360,197C360,198.656 358.656,200 357,200L303,200C301.344,200 300,198.656 300,197L300,183C300,181.344 301.344,180 303,180L358,180C359.104,180 360,179.104 360,178L360,162C360,160.896 359.104,160 358,160L323,160C321.344,160 320,158.656 320,157L320,142C320,140.896 319.104,140 318,140L303,140C301.344,140 300,138.656 300,137L300,123C300,121.344 301.344,120 303,120L317,120C318.656,120 320,118.656 320,117L320,103Z"/>
        </g>
    </g>
</svg>
