<svg height="648" viewBox="0 0 2808 648" width="2808" xmlns="http://www.w3.org/2000/svg" xmlns:xlink="http://www.w3.org/1999/xlink"><mask id="a"><path d="m0 0h2808v648h-2808z" fill="#fff"/><path d="m-102-120h84a18 18 0 0 1 18 18v84a18 18 0 0 1 -18 18h-84a18 18 0 0 1 -18-18v-84a18 18 0 0 1 18-18zm120 120h84a18 18 0 0 1 18 18v84a18 18 0 0 1 -18 18h-84a18 18 0 0 1 -18-18v-84a18 18 0 0 1 18-18z" transform="translate(144 144)"/><path d="m-102-120h84a18 18 0 0 1 18 18v84a18 18 0 0 1 -18 18h-84a18 18 0 0 1 -18-18v-84a18 18 0 0 1 18-18zm120 120h84a18 18 0 0 1 18 18v84a18 18 0 0 1 -18 18h-84a18 18 0 0 1 -18-18v-84a18 18 0 0 1 18-18z" transform="translate(744 144)"/><path d="m-102-120h84a18 18 0 0 1 18 18v84a18 18 0 0 1 -18 18h-84a18 18 0 0 1 -18-18v-84a18 18 0 0 1 18-18zm120 120h84a18 18 0 0 1 18 18v84a18 18 0 0 1 -18 18h-84a18 18 0 0 1 -18-18v-84a18 18 0 0 1 18-18z" transform="translate(1224 144)"/><path d="m-102-120h84a18 18 0 0 1 18 18v84a18 18 0 0 1 -18 18h-84a18 18 0 0 1 -18-18v-84a18 18 0 0 1 18-18zm120 120h84a18 18 0 0 1 18 18v84a18 18 0 0 1 -18 18h-84a18 18 0 0 1 -18-18v-84a18 18 0 0 1 18-18z" transform="translate(1824 144)"/><path d="m18-120h84a18 18 0 0 1 18 18v84a18 18 0 0 1 -18 18h-84a18 18 0 0 1 -18-18v-84a18 18 0 0 1 18-18zm-120 120h84a18 18 0 0 1 18 18v84a18 18 0 0 1 -18 18h-84a18 18 0 0 1 -18-18v-84a18 18 0 0 1 18-18z" transform="translate(144 264)"/><path d="m18-120h84a18 18 0 0 1 18 18v84a18 18 0 0 1 -18 18h-84a18 18 0 0 1 -18-18v-84a18 18 0 0 1 18-18zm-120 120h84a18 18 0 0 1 18 18v84a18 18 0 0 1 -18 18h-84a18 18 0 0 1 -18-18v-84a18 18 0 0 1 18-18z" transform="translate(744 264)"/><path d="m18-120h84a18 18 0 0 1 18 18v84a18 18 0 0 1 -18 18h-84a18 18 0 0 1 -18-18v-84a18 18 0 0 1 18-18zm-120 120h84a18 18 0 0 1 18 18v84a18 18 0 0 1 -18 18h-84a18 18 0 0 1 -18-18v-84a18 18 0 0 1 18-18z" transform="translate(1224 264)"/><path d="m18-120h84a18 18 0 0 1 18 18v84a18 18 0 0 1 -18 18h-84a18 18 0 0 1 -18-18v-84a18 18 0 0 1 18-18zm-120 120h84a18 18 0 0 1 18 18v84a18 18 0 0 1 -18 18h-84a18 18 0 0 1 -18-18v-84a18 18 0 0 1 18-18z" transform="translate(1824 264)"/><path d="m18-120h84a18 18 0 0 1 18 18v84a18 18 0 0 1 -18 18h-84a18 18 0 0 1 -18-18v-84a18 18 0 0 1 18-18zm-120 120h84a18 18 0 0 1 18 18v84a18 18 0 0 1 -18 18h-84a18 18 0 0 1 -18-18v-84a18 18 0 0 1 18-18z" transform="translate(2424 264)"/><path d="m-102-120h84a18 18 0 0 1 18 18v84a18 18 0 0 1 -18 18h-84a18 18 0 0 1 -18-18v-84a18 18 0 0 1 18-18zm120 120h84a18 18 0 0 1 18 18v84a18 18 0 0 1 -18 18h-84a18 18 0 0 1 -18-18v-84a18 18 0 0 1 18-18z" transform="translate(2664 264)"/><path d="m18-120h84a18 18 0 0 1 18 18v84a18 18 0 0 1 -18 18h-84a18 18 0 0 1 -18-18v-84a18 18 0 0 1 18-18zm-120 120h84a18 18 0 0 1 18 18v84a18 18 0 0 1 -18 18h-84a18 18 0 0 1 -18-18v-84a18 18 0 0 1 18-18z" transform="translate(384 384)"/><path d="m-102-120h84a18 18 0 0 1 18 18v84a18 18 0 0 1 -18 18h-84a18 18 0 0 1 -18-18v-84a18 18 0 0 1 18-18zm120 120h84a18 18 0 0 1 18 18v84a18 18 0 0 1 -18 18h-84a18 18 0 0 1 -18-18v-84a18 18 0 0 1 18-18z" transform="translate(744 384)"/><path d="m18-120h84a18 18 0 0 1 18 18v84a18 18 0 0 1 -18 18h-84a18 18 0 0 1 -18-18v-84a18 18 0 0 1 18-18zm-120 120h84a18 18 0 0 1 18 18v84a18 18 0 0 1 -18 18h-84a18 18 0 0 1 -18-18v-84a18 18 0 0 1 18-18z" transform="translate(1464 384)"/><path d="m18-120h84a18 18 0 0 1 18 18v84a18 18 0 0 1 -18 18h-84a18 18 0 0 1 -18-18v-84a18 18 0 0 1 18-18zm-120 120h84a18 18 0 0 1 18 18v84a18 18 0 0 1 -18 18h-84a18 18 0 0 1 -18-18v-84a18 18 0 0 1 18-18z" transform="translate(2064 384)"/><path d="m18-120h84a18 18 0 0 1 18 18v84a18 18 0 0 1 -18 18h-84a18 18 0 0 1 -18-18v-84a18 18 0 0 1 18-18zm-120 120h84a18 18 0 0 1 18 18v84a18 18 0 0 1 -18 18h-84a18 18 0 0 1 -18-18v-84a18 18 0 0 1 18-18z" transform="translate(2664 384)"/><path d="m-102-120h84a18 18 0 0 1 18 18v84a18 18 0 0 1 -18 18h-84a18 18 0 0 1 -18-18v-84a18 18 0 0 1 18-18zm120 120h84a18 18 0 0 1 18 18v84a18 18 0 0 1 -18 18h-84a18 18 0 0 1 -18-18v-84a18 18 0 0 1 18-18z" transform="translate(384 504)"/><path d="m18-120h84a18 18 0 0 1 18 18v84a18 18 0 0 1 -18 18h-84a18 18 0 0 1 -18-18v-84a18 18 0 0 1 18-18zm-120 120h84a18 18 0 0 1 18 18v84a18 18 0 0 1 -18 18h-84a18 18 0 0 1 -18-18v-84a18 18 0 0 1 18-18z" transform="translate(744 504)"/><path d="m-102-120h84a18 18 0 0 1 18 18v84a18 18 0 0 1 -18 18h-84a18 18 0 0 1 -18-18v-84a18 18 0 0 1 18-18zm120 120h84a18 18 0 0 1 18 18v84a18 18 0 0 1 -18 18h-84a18 18 0 0 1 -18-18v-84a18 18 0 0 1 18-18z" transform="translate(1464 504)"/><path d="m-102-120h84a18 18 0 0 1 18 18v84a18 18 0 0 1 -18 18h-84a18 18 0 0 1 -18-18v-84a18 18 0 0 1 18-18zm120 120h84a18 18 0 0 1 18 18v84a18 18 0 0 1 -18 18h-84a18 18 0 0 1 -18-18v-84a18 18 0 0 1 18-18z" transform="translate(2064 504)"/><path d="m-102-120h84a18 18 0 0 1 18 18v84a18 18 0 0 1 -18 18h-84a18 18 0 0 1 -18-18v-84a18 18 0 0 1 18-18zm120 120h84a18 18 0 0 1 18 18v84a18 18 0 0 1 -18 18h-84a18 18 0 0 1 -18-18v-84a18 18 0 0 1 18-18z" transform="translate(2664 504)"/></mask><path d="m144 42a18 18 0 0 1 18-18h324a18 18 0 0 1 18 18v84a18 18 0 0 1 -18 18h-324a18 18 0 0 1 -18-18zm1080 0a18 18 0 0 1 18-18h324a18 18 0 0 1 18 18v84a18 18 0 0 1 -18 18h-324a18 18 0 0 1 -18-18zm600 0a18 18 0 0 1 18-18h324a18 18 0 0 1 18 18v84a18 18 0 0 1 -18 18h-324a18 18 0 0 1 -18-18zm-1800 480a18 18 0 0 1 18-18h324a18 18 0 0 1 18 18v84a18 18 0 0 1 -18 18h-324a18 18 0 0 1 -18-18zm1080 0a18 18 0 0 1 18-18h324a18 18 0 0 1 18 18v84a18 18 0 0 1 -18 18h-324a18 18 0 0 1 -18-18zm600 0a18 18 0 0 1 18-18h324a18 18 0 0 1 18 18v84a18 18 0 0 1 -18 18h-324a18 18 0 0 1 -18-18zm600 0a18 18 0 0 1 18-18h324a18 18 0 0 1 18 18v84a18 18 0 0 1 -18 18h-324a18 18 0 0 1 -18-18zm-1560-480a18 18 0 0 1 18-18h204a18 18 0 0 1 18 18v84a18 18 0 0 1 -18 18h-204a18 18 0 0 1 -18-18zm1560 0a18 18 0 0 1 18-18h84a18 18 0 0 1 18 18v204a18 18 0 0 1 -18 18h-84a18 18 0 0 1 -18-18zm360 0a18 18 0 0 1 18-18h84a18 18 0 0 1 18 18v204a18 18 0 0 1 -18 18h-84a18 18 0 0 1 -18-18zm-2520 240a18 18 0 0 1 18-18h204a18 18 0 0 1 18 18v84a18 18 0 0 1 -18 18h-204a18 18 0 0 1 -18-18zm600 0a18 18 0 0 1 18-18h204a18 18 0 0 1 18 18v84a18 18 0 0 1 -18 18h-204a18 18 0 0 1 -18-18zm480 0a18 18 0 0 1 18-18h204a18 18 0 0 1 18 18v84a18 18 0 0 1 -18 18h-204a18 18 0 0 1 -18-18zm600 0a18 18 0 0 1 18-18h204a18 18 0 0 1 18 18v84a18 18 0 0 1 -18 18h-204a18 18 0 0 1 -18-18zm600 0a18 18 0 0 1 18-18h204a18 18 0 0 1 18 18v84a18 18 0 0 1 -18 18h-204a18 18 0 0 1 -18-18zm-1680 240a18 18 0 0 1 18-18h204a18 18 0 0 1 18 18v84a18 18 0 0 1 -18 18h-204a18 18 0 0 1 -18-18zm-720-360a18 18 0 0 1 18-18h84a18 18 0 0 1 18 18v84a18 18 0 0 1 -18 18h-84a18 18 0 0 1 -18-18zm600 0a18 18 0 0 1 18-18h84a18 18 0 0 1 18 18v84a18 18 0 0 1 -18 18h-84a18 18 0 0 1 -18-18zm480 0a18 18 0 0 1 18-18h84a18 18 0 0 1 18 18v84a18 18 0 0 1 -18 18h-84a18 18 0 0 1 -18-18zm600 0a18 18 0 0 1 18-18h84a18 18 0 0 1 18 18v84a18 18 0 0 1 -18 18h-84a18 18 0 0 1 -18-18zm-1320 240a18 18 0 0 1 18-18h84a18 18 0 0 1 18 18v84a18 18 0 0 1 -18 18h-84a18 18 0 0 1 -18-18zm240 0a18 18 0 0 1 18-18h84a18 18 0 0 1 18 18v84a18 18 0 0 1 -18 18h-84a18 18 0 0 1 -18-18zm840 0a18 18 0 0 1 18-18h84a18 18 0 0 1 18 18v84a18 18 0 0 1 -18 18h-84a18 18 0 0 1 -18-18zm600 0a18 18 0 0 1 18-18h84a18 18 0 0 1 18 18v84a18 18 0 0 1 -18 18h-84a18 18 0 0 1 -18-18zm600 0a18 18 0 0 1 18-18h84a18 18 0 0 1 18 18v84a18 18 0 0 1 -18 18h-84a18 18 0 0 1 -18-18z" fill-rule="evenodd"/><g mask="url(#a)"><path d="m-60-60h120a0 0 0 0 1 0 0v120a0 0 0 0 1 0 0h-120a0 0 0 0 1 0 0v-120a0 0 0 0 1 0 0z" transform="translate(144 144)"/><path d="m-60-60h120a0 0 0 0 1 0 0v120a0 0 0 0 1 0 0h-120a0 0 0 0 1 0 0v-120a0 0 0 0 1 0 0z" transform="translate(744 144)"/><path d="m-60-60h120a0 0 0 0 1 0 0v120a0 0 0 0 1 0 0h-120a0 0 0 0 1 0 0v-120a0 0 0 0 1 0 0z" transform="translate(1224 144)"/><path d="m-60-60h120a0 0 0 0 1 0 0v120a0 0 0 0 1 0 0h-120a0 0 0 0 1 0 0v-120a0 0 0 0 1 0 0z" transform="translate(1824 144)"/><path d="m-60-60h120a0 0 0 0 1 0 0v120a0 0 0 0 1 0 0h-120a0 0 0 0 1 0 0v-120a0 0 0 0 1 0 0z" transform="translate(144 264)"/><path d="m-60-60h120a0 0 0 0 1 0 0v120a0 0 0 0 1 0 0h-120a0 0 0 0 1 0 0v-120a0 0 0 0 1 0 0z" transform="translate(744 264)"/><path d="m-60-60h120a0 0 0 0 1 0 0v120a0 0 0 0 1 0 0h-120a0 0 0 0 1 0 0v-120a0 0 0 0 1 0 0z" transform="translate(1224 264)"/><path d="m-60-60h120a0 0 0 0 1 0 0v120a0 0 0 0 1 0 0h-120a0 0 0 0 1 0 0v-120a0 0 0 0 1 0 0z" transform="translate(1824 264)"/><path d="m-60-60h120a0 0 0 0 1 0 0v120a0 0 0 0 1 0 0h-120a0 0 0 0 1 0 0v-120a0 0 0 0 1 0 0z" transform="translate(2424 264)"/><path d="m-60-60h120a0 0 0 0 1 0 0v120a0 0 0 0 1 0 0h-120a0 0 0 0 1 0 0v-120a0 0 0 0 1 0 0z" transform="translate(2664 264)"/><path d="m-60-60h120a0 0 0 0 1 0 0v120a0 0 0 0 1 0 0h-120a0 0 0 0 1 0 0v-120a0 0 0 0 1 0 0z" transform="translate(384 384)"/><path d="m-60-60h120a0 0 0 0 1 0 0v120a0 0 0 0 1 0 0h-120a0 0 0 0 1 0 0v-120a0 0 0 0 1 0 0z" transform="translate(744 384)"/><path d="m-60-60h120a0 0 0 0 1 0 0v120a0 0 0 0 1 0 0h-120a0 0 0 0 1 0 0v-120a0 0 0 0 1 0 0z" transform="translate(1464 384)"/><path d="m-60-60h120a0 0 0 0 1 0 0v120a0 0 0 0 1 0 0h-120a0 0 0 0 1 0 0v-120a0 0 0 0 1 0 0z" transform="translate(2064 384)"/><path d="m-60-60h120a0 0 0 0 1 0 0v120a0 0 0 0 1 0 0h-120a0 0 0 0 1 0 0v-120a0 0 0 0 1 0 0z" transform="translate(2664 384)"/><path d="m-60-60h120a0 0 0 0 1 0 0v120a0 0 0 0 1 0 0h-120a0 0 0 0 1 0 0v-120a0 0 0 0 1 0 0z" transform="translate(384 504)"/><path d="m-60-60h120a0 0 0 0 1 0 0v120a0 0 0 0 1 0 0h-120a0 0 0 0 1 0 0v-120a0 0 0 0 1 0 0z" transform="translate(744 504)"/><path d="m-60-60h120a0 0 0 0 1 0 0v120a0 0 0 0 1 0 0h-120a0 0 0 0 1 0 0v-120a0 0 0 0 1 0 0z" transform="translate(1464 504)"/><path d="m-60-60h120a0 0 0 0 1 0 0v120a0 0 0 0 1 0 0h-120a0 0 0 0 1 0 0v-120a0 0 0 0 1 0 0z" transform="translate(2064 504)"/><path d="m-60-60h120a0 0 0 0 1 0 0v120a0 0 0 0 1 0 0h-120a0 0 0 0 1 0 0v-120a0 0 0 0 1 0 0z" transform="translate(2664 504)"/></g></svg>
